<?xml version="1.0" ?><svg id="Layer_1" style="enable-background:new 0 0 512 512;" version="1.1" viewBox="0 0 512 512" xml:space="preserve" xmlns="http://www.w3.org/2000/svg" xmlns:xlink="http://www.w3.org/1999/xlink"><style type="text/css">
	.st0{fill:#ED1C24;}
</style><path class="st0" d="M458,118.2L346.5,8.4C345,6.9,342.9,6,340.7,6H135c-31.1,0-56.3,26.6-56.3,59.4v219.2H51.3v148.6h27.4v13.4  c0,32.7,25.3,59.4,56.3,59.4h269.4c31.1,0,56.3-26.6,56.3-59.4V124.7C460.7,122.3,459.8,119.9,458,118.2z M337.9,24.4l97,95.6h-52.8  c-24.4,0-44.2-19.5-44.2-43.4V24.4z M87.9,391.4H77.1v-65h10.8V355H117v-28.6h10.8v65H117v-27.7H87.9V391.4z M443.7,446.6  c0,22.9-17.6,41.5-39.3,41.5H135c-21.7,0-39.3-18.6-39.3-41.5v-13.4h187c36.5,0,66-33.3,66-74.3v0c0-41-29.6-74.3-66-74.3h-187V65.4  c0-22.9,17.6-41.5,39.3-41.5h185.9v52.7c0,33.8,27.4,61.3,61.2,61.3h61.6V446.6z M137.6,335.1v-8.7h50.7v8.7h-20.1v56.3h-10.8v-56.3  H137.6z M254,344.7l-17.9,46.7h-7.5l-18.2-47.6l-0.3,0.1v47.5h-10.8v-65h14.2l18.7,50h0.3l18.8-50h13.8v65h-10.8v-46.7L254,344.7z   M322.9,382.7v8.7h-41.3v-65h10.8v56.3H322.9z"/></svg>